# xmcd CD database file
#
# Track frame offsets:
#	150
#	14670
#	29250
#	42330
#	55507
#	70990
#	82923
#	95052
#	106748
#	121830
#	131546
#	143930
#
# Disc length: 2115 seconds
#
# Revision: 1
# Processed by: cddbd v1.5.2PL0 Copyright (c) Steve Scherf et al.
# Submitted via: CDex 1.60beta1-cs1
#
DISCID=9c08410c
DTITLE=Luís Carlos Vinhas-Sebatião Neto-Edison Machado - Os Bossa Três
DYEAR=1963
DGENRE=Jazz
TTITLE0=Blues Walk
TTITLE1=Céu e Mar
TTITLE2=Green Dolphin Street
TTITLE3=Menina feia
TTITLE4=Sol e Chuva
TTITLE5=Olhou pra mim
TTITLE6=The Bossa 3 Theme
TTITLE7=Não faz assim
TTITLE8=Somebody loves me
TTITLE9=Só saudade
TTITLE10=Influência do Jazz
TTITLE11=Zelão
EXTD=YEAR: 1963
EXTT0=
EXTT1=
EXTT2=
EXTT3=
EXTT4=
EXTT5=
EXTT6=
EXTT7=
EXTT8=
EXTT9=
EXTT10=
EXTT11=
PLAYORDER=
